<?xml version="1.0" encoding="UTF-8" standalone="no"?>
<!-- Created with Inkscape (http://www.inkscape.org/) -->

<svg
   xmlns:dc="http://purl.org/dc/elements/1.1/"
   xmlns:cc="http://creativecommons.org/ns#"
   xmlns:rdf="http://www.w3.org/1999/02/22-rdf-syntax-ns#"
   xmlns:svg="http://www.w3.org/2000/svg"
   xmlns="http://www.w3.org/2000/svg"
   xmlns:sodipodi="http://sodipodi.sourceforge.net/DTD/sodipodi-0.dtd"
   xmlns:inkscape="http://www.inkscape.org/namespaces/inkscape"
   width="34.372395mm"
   height="54.446434mm"
   viewBox="0 0 121.79196 192.92043"
   id="svg6350"
   version="1.1"
   inkscape:version="0.92.2 (5c3e80d, 2017-08-06)"
   sodipodi:docname="crane_scheme.svg">
  <defs
     id="defs6352">
    <style
       type="text/css"
       id="style2">@import url(https://fonts.googleapis.com/css?family=Open+Sans);</style>
    <clipPath
       clipPathUnits="userSpaceOnUse"
       id="clipPath9372">
      <path
         d="M 0,0 H 143.33 V 121.422 H 0 Z"
         id="path9374"
         inkscape:connector-curvature="0" />
    </clipPath>
  </defs>
  <sodipodi:namedview
     id="base"
     pagecolor="#ffffff"
     bordercolor="#666666"
     borderopacity="1.0"
     inkscape:pageopacity="0.0"
     inkscape:pageshadow="2"
     inkscape:zoom="2.8"
     inkscape:cx="1.441802"
     inkscape:cy="91.948019"
     inkscape:document-units="px"
     inkscape:current-layer="layer1"
     showgrid="false"
     showguides="false"
     fit-margin-top="0"
     fit-margin-left="0"
     fit-margin-right="0"
     fit-margin-bottom="0"
     inkscape:window-width="1920"
     inkscape:window-height="1001"
     inkscape:window-x="-9"
     inkscape:window-y="-9"
     inkscape:window-maximized="1" />
  <metadata
     id="metadata6355">
    <rdf:RDF>
      <cc:Work
         rdf:about="">
        <dc:format>image/svg+xml</dc:format>
        <dc:type
           rdf:resource="http://purl.org/dc/dcmitype/StillImage" />
        <dc:title></dc:title>
      </cc:Work>
    </rdf:RDF>
  </metadata>
  <g
     inkscape:label="Laag 1"
     inkscape:groupmode="layer"
     id="layer1"
     transform="translate(-600.64978,-23.698978)">
    <g
       id="g9366"
       transform="matrix(1.25,0,0,-1.25,585.59633,194.8313)">
      <g
         id="g9368">
        <g
           id="g9370"
           clip-path="url(#clipPath9372)">
          <g
             id="g9376"
             transform="translate(71.665,79.237)">
            <g
               id="g9378"
               transform="translate(-1.7142857,-2.2857143)">
              <g
                 id="g9380">
                <g
                   id="g9382"
                   transform="matrix(0.62675305,0,0,0.80971141,-13.491848,11.607833)"
                   style="stroke-width:1.40373993">
                  <path
                     d="M -70.867,0 H 70.867"
                     style="fill:none;stroke:#000000;stroke-width:0.83909959;stroke-linecap:butt;stroke-linejoin:miter;stroke-miterlimit:10;stroke-dasharray:none;stroke-opacity:1"
                     id="path9384"
                     inkscape:connector-curvature="0" />
                </g>
                <g
                   id="g9386"
                   transform="translate(-13.558813,11.607833)">
                  <path
                     d="m -17.275,4.25204 c 0,2.20095 -1.78416,3.98511 -3.9851,3.98511 -2.20094,0 -3.98511,-1.78416 -3.98511,-3.98511 0,-2.20094 1.78417,-3.9851 3.98511,-3.9851 2.20094,0 3.9851,1.78416 3.9851,3.9851 z"
                     style="fill:#000000;fill-opacity:1;fill-rule:nonzero;stroke:none"
                     id="path9388"
                     inkscape:connector-curvature="0" />
                </g>
                <g
                   id="g9390"
                   transform="translate(-13.558813,11.607833)">
                  <path
                     d="m 25.24521,4.25204 c 0,2.20095 -1.78417,3.98511 -3.98511,3.98511 -2.20094,0 -3.9851,-1.78416 -3.9851,-3.98511 0,-2.20094 1.78416,-3.9851 3.9851,-3.9851 2.20094,0 3.98511,1.78416 3.98511,3.9851 z"
                     style="fill:#000000;fill-opacity:1;fill-rule:nonzero;stroke:none"
                     id="path9392"
                     inkscape:connector-curvature="0" />
                </g>
                <g
                   id="g9394"
                   transform="translate(-13.558813,11.607833)">
                  <rect
                     style="color:#000000;clip-rule:nonzero;display:inline;overflow:visible;visibility:visible;opacity:1;isolation:auto;mix-blend-mode:normal;color-interpolation:sRGB;color-interpolation-filters:linearRGB;solid-color:#000000;solid-opacity:1;fill:#54bceb;fill-opacity:1;fill-rule:nonzero;stroke:none;stroke-width:2.046;stroke-linecap:butt;stroke-linejoin:miter;stroke-miterlimit:4;stroke-dasharray:none;stroke-dashoffset:0;stroke-opacity:1;color-rendering:auto;image-rendering:auto;shape-rendering:auto;text-rendering:auto;enable-background:accumulate"
                     id="rect12762"
                     width="55.861435"
                     height="19.79899"
                     x="-27.807381"
                     y="-23.996542"
                     transform="scale(1,-1)"
                     rx="4.2813487"
                     ry="4.3250513" />
                </g>
                <g
                   id="g9398"
                   transform="translate(-13.558813,11.607833)"
                   style="stroke:#333333;stroke-opacity:1">
                  <path
                     d="m 14.06062,14.17339 c 0,3.85165 -3.12228,6.97393 -6.97393,6.97393 -3.85166,0 -6.97394,-3.12228 -6.97394,-6.97393 0,-3.85164 3.12228,-6.97394 6.97394,-6.97394 3.85165,0 6.97393,3.1223 6.97393,6.97394 z"
                     style="fill:none;stroke:#333333;stroke-width:0.79701;stroke-linecap:butt;stroke-linejoin:miter;stroke-miterlimit:10;stroke-dasharray:none;stroke-opacity:1"
                     id="path9400"
                     inkscape:connector-curvature="0" />
                </g>
                <g
                   id="g9402"
                   transform="matrix(1.4727231,0,0,1.466697,-13.472532,5.0371104)"
                   style="stroke-width:0.68040776">
                  <path
                     d="M 0.14288896,13.052889 16.464396,-42.812424"
                     style="fill:none;stroke:#333333;stroke-width:0.40672055;stroke-linecap:butt;stroke-linejoin:miter;stroke-miterlimit:10;stroke-dasharray:none;stroke-opacity:1"
                     id="path9404"
                     inkscape:connector-curvature="0"
                     sodipodi:nodetypes="cc" />
                </g>
                <g
                   id="g9406"
                   transform="translate(-15.952224,8.9783824)">
                  <path
                     d="m 35.81888,-70.867 c 0,4.12675 -3.34532,7.47207 -7.47208,7.47207 -4.12675,0 -7.47207,-3.34532 -7.47207,-7.47207 0,-4.12677 3.34532,-7.47208 7.47207,-7.47208 4.12676,0 7.47208,3.34531 7.47208,7.47208 z"
                     style="fill:#808080;fill-opacity:1;fill-rule:nonzero;stroke:none"
                     id="path9408"
                     inkscape:connector-curvature="0" />
                </g>
                <g
                   id="g9410"
                   transform="translate(-15.952224,8.9783824)">
                  <path
                     d="m 35.81888,-70.867 c 0,4.12675 -3.34532,7.47207 -7.47208,7.47207 -4.12675,0 -7.47207,-3.34532 -7.47207,-7.47207 0,-4.12677 3.34532,-7.47208 7.47207,-7.47208 4.12676,0 7.47208,3.34531 7.47208,7.47208 z"
                     style="fill:none;stroke:#000000;stroke-width:0.79701;stroke-linecap:butt;stroke-linejoin:miter;stroke-miterlimit:10;stroke-dasharray:none;stroke-opacity:1"
                     id="path9412"
                     inkscape:connector-curvature="0" />
                </g>
                <g
                   id="g9428"
                   transform="translate(-13.558813,11.607833)">
                  <path
                     d="m 7.79405,18.42546 c 1.64101,0 3.5447,-1.90369 3.5447,-4.25206 0,-1.78728 -1.11834,-3.3844 -2.13222,-3.75342"
                     style="fill:none;stroke:#333333;stroke-width:0.79701;stroke-linecap:butt;stroke-linejoin:miter;stroke-miterlimit:10;stroke-dasharray:none;stroke-opacity:1"
                     id="path9430"
                     inkscape:connector-curvature="0" />
                  <g
                     id="g9432"
                     transform="rotate(180,3.897025,9.21273)"
                     style="stroke:#333333;stroke-opacity:1">
                    <g
                       id="g9434"
                       style="stroke:#333333;stroke-opacity:1">
                      <path
                         d="M -1.55415,2.0722 C -1.42464,1.29512 0,0.1295 0.38852,0 0,-0.1295 -1.42464,-1.29512 -1.55415,-2.0722"
                         style="fill:none;stroke:#333333;stroke-width:0.6376;stroke-linecap:round;stroke-linejoin:round;stroke-miterlimit:10;stroke-dasharray:none;stroke-opacity:1"
                         id="path9436"
                         inkscape:connector-curvature="0" />
                    </g>
                  </g>
                  <g
                     id="g9438"
                     transform="matrix(-0.94089,-0.34244,0.34244,-0.94089,9.20653,10.41998)"
                     style="stroke:#333333;stroke-opacity:1">
                    <g
                       id="g9440"
                       style="stroke:#333333;stroke-opacity:1">
                      <path
                         d="M -1.55415,2.0722 C -1.42464,1.29512 0,0.1295 0.38852,0 0,-0.1295 -1.42464,-1.29512 -1.55415,-2.0722"
                         style="fill:none;stroke:#333333;stroke-width:0.6376;stroke-linecap:round;stroke-linejoin:round;stroke-miterlimit:10;stroke-dasharray:none;stroke-opacity:1"
                         id="path9442"
                         inkscape:connector-curvature="0" />
                    </g>
                  </g>
                </g>
                <g
                   id="g9524">
                  <g
                     id="g9526"
                     transform="translate(1.598,34.075)">
                    <g
                       id="g9528">
                      <g
                         id="g9530"
                         transform="translate(-73.263,-113.312)">
                        <text
                           transform="matrix(1,0,0,-1,73.263,113.312)"
                           style="font-variant:normal;font-weight:normal;font-size:9.96259975px;line-height:0%;font-family:CMMI10;-inkscape-font-specification:CMMI10;writing-mode:lr-tb;fill:#000000;fill-opacity:1;fill-rule:nonzero;stroke:none"
                           id="text9532">
                          <tspan
                             x="0"
                             y="0"
                             id="tspan9534" />
                        </text>
                        <text
                           transform="matrix(1,0,0,-1,78.957,111.818)"
                           style="font-variant:normal;line-height:0%;font-family:NimbusRomNo9L;-inkscape-font-specification:NimbusRomNo9L-Regu;writing-mode:lr-tb;fill:#000000;fill-opacity:1;fill-rule:nonzero;stroke:none"
                           id="text9536">
                          <tspan
                             sodipodi:role="line"
                             id="tspan9538"
                             x="0"
                             y="0"
                             style="font-size:6.97380018px;line-height:1.25"> </tspan>
                        </text>
                        <g
                           id="g9540"
                           transform="translate(73.263,113.312)" />
                      </g>
                    </g>
                    <g
                       id="g9542"
                       transform="translate(-1.598,-34.075)" />
                  </g>
                </g>
                <path
                   sodipodi:nodetypes="cccccccccccccccccccccccccccsccccssscccscccsccccccssscccssccssccssccsscccscccsscccscccscccscccs"
                   inkscape:connector-curvature="0"
                   id="path4270-2-6-0-5-9-8"
                   d="M -32.071268,31.764266 V 19.241433 h 2.836605 v 7.496081 l 2.663707,-5.450067 h 1.522108 l 2.663707,5.450067 v -7.496081 h 2.836705 v 12.522833 h -3.061515 l -3.199951,-6.543588 -3.182519,6.543588 z m 10.289059,-5.016584 h 1.566924 v -0.546451 h -0.95222 V 25.87973 h 0.813433 v -0.507981 h -0.813433 v -0.360092 h 0.980572 V 24.46508 h -1.595276 z m 0.850685,-2.478886 c 0.19968,0 0.374165,-0.04604 0.523387,-0.138205 0.149239,-0.09002 0.259574,-0.21006 0.331037,-0.360094 l -0.469806,-0.340861 c -0.01891,0.05573 -0.04418,0.101892 -0.07571,0.138329 -0.02942,0.03644 -0.06195,0.06531 -0.09768,0.08675 -0.03573,0.02143 -0.07362,0.03652 -0.113557,0.04509 -0.03992,0.0086 -0.07666,0.01287 -0.110301,0.01287 -0.07776,0 -0.144981,-0.01821 -0.201735,-0.05465 -0.05465,-0.03429 -0.100934,-0.08046 -0.13877,-0.138328 -0.03573,-0.05573 -0.06201,-0.119978 -0.07883,-0.192851 -0.01682,-0.07073 -0.02523,-0.14148 -0.02523,-0.212209 0,-0.0793 0.0094,-0.155388 0.02835,-0.228259 0.02102,-0.07287 0.05048,-0.137127 0.08831,-0.192853 0.03994,-0.05573 0.08726,-0.100849 0.141909,-0.135142 0.05675,-0.03215 0.12077,-0.04815 0.192233,-0.04815 0.03575,0 0.0726,0.0043 0.110435,0.01287 0.03784,0.01072 0.07355,0.02672 0.107179,0.04815 0.03573,0.02358 0.06724,0.05258 0.09456,0.08687 0.02942,0.03644 0.05251,0.08039 0.06933,0.131834 l 0.501414,-0.305451 c -0.03154,-0.08359 -0.07988,-0.15863 -0.145031,-0.225073 -0.06306,-0.06644 -0.135631,-0.12211 -0.217597,-0.167123 -0.08198,-0.04501 -0.169225,-0.07934 -0.261694,-0.102918 -0.09248,-0.02358 -0.182916,-0.03541 -0.271194,-0.03541 -0.15555,0 -0.298394,0.03329 -0.428715,0.09973 -0.130321,0.06859 -0.242809,0.158589 -0.337382,0.270041 -0.09248,0.111453 -0.164934,0.237872 -0.21748,0.379331 -0.05255,0.14146 -0.07883,0.285047 -0.07883,0.430791 0,0.139319 0.02411,0.276524 0.07245,0.411555 0.04836,0.135031 0.11875,0.256114 0.211235,0.363282 0.09459,0.107166 0.208096,0.194039 0.340521,0.260482 0.134512,0.06644 0.286923,0.09961 0.457184,0.09961 z m -0.02703,-2.494934 c 0.159741,0 0.304756,-0.03329 0.435077,-0.09973 0.132424,-0.06644 0.244913,-0.154356 0.337398,-0.263669 0.09457,-0.109311 0.167138,-0.233521 0.217597,-0.372838 0.05044,-0.139316 0.07557,-0.281857 0.07557,-0.427605 0,-0.150033 -0.0273,-0.294782 -0.08195,-0.4341 -0.05255,-0.137171 -0.12613,-0.259297 -0.22072,-0.366464 -0.09459,-0.105025 -0.208096,-0.189691 -0.34052,-0.253992 -0.132408,-0.0643 -0.277423,-0.09642 -0.435077,-0.09642 -0.159741,0 -0.305774,0.03317 -0.438199,0.09961 -0.130321,0.06645 -0.242809,0.153318 -0.337398,0.260483 -0.09249,0.109311 -0.164918,0.233646 -0.21748,0.37296 -0.05044,0.139319 -0.07569,0.282903 -0.07569,0.430792 0,0.150034 0.02626,0.294663 0.07883,0.433977 0.05463,0.139319 0.130271,0.261443 0.226964,0.366468 0.09669,0.107165 0.2102,0.191833 0.34052,0.253988 0.132409,0.0643 0.27744,0.09655 0.435077,0.09655 z m -0.0093,-0.556254 c -0.07778,0 -0.145115,-0.01717 -0.201868,-0.05146 -0.05465,-0.03429 -0.100818,-0.08033 -0.138653,-0.138205 -0.03573,-0.05573 -0.06315,-0.119979 -0.08207,-0.192851 -0.01682,-0.07073 -0.02523,-0.143687 -0.02523,-0.218704 0,-0.07716 0.0083,-0.152203 0.02523,-0.225076 0.01891,-0.07073 0.04735,-0.133939 0.08519,-0.189665 0.03784,-0.05573 0.08516,-0.100729 0.141909,-0.135022 0.05675,-0.03429 0.122941,-0.05146 0.198612,-0.05146 0.07778,0 0.144981,0.01717 0.201734,0.05146 0.05675,0.03644 0.103055,0.08248 0.138787,0.138207 0.03573,0.05787 0.062,0.123285 0.07881,0.196158 0.01891,0.07288 0.02837,0.146873 0.02837,0.22189 0,0.07716 -0.0094,0.151037 -0.02837,0.221769 -0.01891,0.07287 -0.04735,0.13608 -0.08519,0.189664 -0.03573,0.05573 -0.0819,0.09968 -0.138653,0.131835 -0.05675,0.03429 -0.122941,0.05146 -0.198612,0.05146 z"
                   style="font-style:normal;font-variant:normal;font-weight:800;font-stretch:normal;font-size:281.1619873px;line-height:100%;font-family:Raleway;-inkscape-font-specification:'Raleway Ultra-Bold';letter-spacing:0px;word-spacing:0px;baseline-shift:baseline;display:inline;fill:#ffffff;fill-opacity:1;stroke:none;stroke-width:1px;stroke-linecap:butt;stroke-linejoin:miter;stroke-opacity:1" />
              </g>
            </g>
            <g
               id="g9544"
               transform="translate(27.441184,29.893548)" />
          </g>
        </g>
      </g>
    </g>
    <g
       transform="matrix(1.7247914,1.0627422,0.9757828,-1.8754329,-194.51578,243.42768)"
       id="g3458-0-0-3"
       style="stroke-width:0.56699485"
       inkscape:transform-center-x="-7.548619"
       inkscape:transform-center-y="2.3469965">
      <g
         id="g3460-6-4-0"
         style="stroke-width:0.56699485">
        <path
           d="m 338.305,298.569 -5.163,-1.058 1.665,-2.884 z"
           style="fill:#000000;fill-opacity:1;fill-rule:evenodd;stroke:#000000;stroke-width:0.45359585;stroke-linecap:butt;stroke-linejoin:round;stroke-miterlimit:10;stroke-dasharray:none;stroke-opacity:1"
           id="path3462-5-3-1"
           inkscape:connector-curvature="0" />
      </g>
    </g>
    <path
       d="m 646.12227,42.99409 h 24.26856"
       style="fill:none;stroke:#000000;stroke-width:0.74720001;stroke-linecap:butt;stroke-linejoin:miter;stroke-miterlimit:10;stroke-dasharray:none;stroke-opacity:1"
       id="path9384-9"
       inkscape:connector-curvature="0" />
    <g
       transform="matrix(1.7247914,1.0627422,0.97578279,-1.8754329,-152.85166,397.90862)"
       id="g3458-0-0-3-2"
       style="stroke-width:0.56699485"
       inkscape:transform-center-x="-7.548619"
       inkscape:transform-center-y="2.3469965">
      <g
         id="g3460-6-4-0-4"
         style="stroke-width:0.56699485">
        <path
           d="m 338.305,298.569 -5.163,-1.058 1.665,-2.884 z"
           style="fill:#000000;fill-opacity:1;fill-rule:evenodd;stroke:#000000;stroke-width:0.45359585;stroke-linecap:butt;stroke-linejoin:round;stroke-miterlimit:10;stroke-dasharray:none;stroke-opacity:1"
           id="path3462-5-3-1-3"
           inkscape:connector-curvature="0" />
      </g>
    </g>
    <path
       d="m 687.78639,197.47503 h 24.26856"
       style="fill:none;stroke:#000000;stroke-width:0.74720001;stroke-linecap:butt;stroke-linejoin:miter;stroke-miterlimit:10;stroke-dasharray:none;stroke-opacity:1"
       id="path9384-9-1"
       inkscape:connector-curvature="0" />
    <path
       d="m 687.70334,192.64425 v 9.53642"
       style="fill:none;stroke:#000000;stroke-width:0.74720001;stroke-linecap:butt;stroke-linejoin:miter;stroke-miterlimit:10;stroke-dasharray:none;stroke-opacity:1"
       id="path9384-9-1-6"
       inkscape:connector-curvature="0" />
    <path
       d="M 656.02368,96.444219 V 123.08033"
       style="fill:none;stroke:#000000;stroke-width:0.74720001;stroke-linecap:butt;stroke-linejoin:miter;stroke-miterlimit:10;stroke-dasharray:2.98879997, 2.98879997;stroke-dashoffset:0;stroke-opacity:1"
       id="path9384-9-0"
       inkscape:connector-curvature="0" />
    <path
       style="fill:none;stroke:#000000;stroke-width:0.9375px;stroke-linecap:butt;stroke-linejoin:miter;stroke-opacity:1"
       d="m 656.21043,121.30755 c 5.06376,0.79513 10.36135,0.44929 14.73214,-3.93415"
       id="path1216"
       inkscape:connector-curvature="0"
       inkscape:transform-center-x="19.670759"
       inkscape:transform-center-y="-1.1718785"
       sodipodi:nodetypes="cc" />
    <path
       d="m 670.37984,117.3734 -10.4529,1.3265 3.27105,6.38986 z"
       style="fill:#000000;fill-opacity:1;fill-rule:evenodd;stroke:#000000;stroke-width:0.9375;stroke-linecap:butt;stroke-linejoin:round;stroke-miterlimit:10;stroke-dasharray:none;stroke-opacity:1"
       id="path3462-5-3-1-5"
       inkscape:connector-curvature="0"
       inkscape:transform-center-x="24.849058"
       inkscape:transform-center-y="15.578885" />
    <g
       transform="matrix(1.25,0,0,1.25,-71.570355,141.87604)"
       style="fill:#000000;fill-opacity:1"
       id="g1010">
      <g
         id="use1008"
         transform="matrix(0.9375,0,0,0.9375,611.60878,57.450954)">
        <path
           inkscape:connector-curvature="0"
           id="path1109"
           d="m 4.84375,-3.796875 c 0.046875,-0.140625 0.046875,-0.15625 0.046875,-0.234375 0,-0.171875 -0.140625,-0.265625 -0.296875,-0.265625 -0.09375,0 -0.25,0.0625 -0.34375,0.203125 -0.015625,0.0625 -0.109375,0.359375 -0.140625,0.546875 -0.078125,0.25 -0.140625,0.53125 -0.203125,0.796875 l -0.453125,1.796875 c -0.03125,0.140625 -0.46875,0.84375 -1.125,0.84375 -0.5,0 -0.609375,-0.4375 -0.609375,-0.8125 C 1.71875,-1.375 1.890625,-2 2.21875,-2.875 2.375,-3.28125 2.421875,-3.390625 2.421875,-3.59375 c 0,-0.4375 -0.3125,-0.8125 -0.8125,-0.8125 -0.953125,0 -1.3125,1.453125 -1.3125,1.53125 0,0.109375 0.09375,0.109375 0.109375,0.109375 0.109375,0 0.109375,-0.03125 0.15625,-0.1875 0.28125,-0.9375 0.671875,-1.234375 1.015625,-1.234375 0.078125,0 0.25,0 0.25,0.3125 0,0.25 -0.109375,0.515625 -0.171875,0.703125 -0.40625,1.0625 -0.578125,1.625 -0.578125,2.09375 0,0.890625 0.625,1.1875 1.21875,1.1875 0.390625,0 0.71875,-0.171875 1,-0.453125 -0.125,0.515625 -0.25,1.015625 -0.640625,1.546875 -0.265625,0.328125 -0.640625,0.625 -1.09375,0.625 -0.140625,0 -0.59375,-0.03125 -0.765625,-0.421875 0.15625,0 0.296875,0 0.421875,-0.125 C 1.328125,1.203125 1.421875,1.0625 1.421875,0.875 1.421875,0.5625 1.15625,0.53125 1.0625,0.53125 0.828125,0.53125 0.5,0.6875 0.5,1.171875 c 0,0.5 0.4375,0.875 1.0625,0.875 1.015625,0 2.046875,-0.90625 2.328125,-2.03125 z m 0,0"
           style="stroke:none" />
      </g>
    </g>
    <g
       transform="matrix(1.25,0,0,1.25,-71.570355,141.87604)"
       style="fill:#000000;fill-opacity:1"
       id="g1018">
      <g
         id="use1012"
         transform="matrix(0.9375,0,0,0.9375,620.17178,57.450954)">
        <path
           inkscape:connector-curvature="0"
           id="path1113"
           d="M 2.546875,2.5 V 2.09375 h -0.96875 v -9.171875 h 0.96875 v -0.40625 h -1.375 V 2.5 Z m 0,0"
           style="stroke:none" />
      </g>
      <g
         id="use1014"
         transform="matrix(0.9375,0,0,0.9375,622.93939,57.450954)">
        <path
           inkscape:connector-curvature="0"
           id="path1117"
           d="M 1.09375,-3.421875 V -0.75 c 0,0.4375 -0.109375,0.4375 -0.78125,0.4375 V 0 c 0.359375,-0.015625 0.859375,-0.03125 1.140625,-0.03125 0.25,0 0.765625,0.015625 1.109375,0.03125 v -0.3125 c -0.671875,0 -0.78125,0 -0.78125,-0.4375 V -2.59375 C 1.78125,-3.625 2.5,-4.1875 3.125,-4.1875 c 0.640625,0 0.75,0.53125 0.75,1.109375 V -0.75 c 0,0.4375 -0.109375,0.4375 -0.78125,0.4375 V 0 c 0.34375,-0.015625 0.859375,-0.03125 1.125,-0.03125 0.25,0 0.78125,0.015625 1.109375,0.03125 v -0.3125 c -0.65625,0 -0.765625,0 -0.765625,-0.4375 v -1.84375 c 0,-1.03125 0.703125,-1.59375 1.34375,-1.59375 0.625,0 0.734375,0.53125 0.734375,1.109375 V -0.75 c 0,0.4375 -0.109375,0.4375 -0.78125,0.4375 V 0 c 0.34375,-0.015625 0.859375,-0.03125 1.125,-0.03125 0.265625,0 0.78125,0.015625 1.125,0.03125 v -0.3125 c -0.515625,0 -0.765625,0 -0.78125,-0.296875 v -1.90625 c 0,-0.859375 0,-1.15625 -0.3125,-1.515625 -0.140625,-0.171875 -0.46875,-0.375 -1.046875,-0.375 -0.828125,0 -1.28125,0.59375 -1.4375,0.984375 C 4.390625,-4.296875 3.65625,-4.40625 3.203125,-4.40625 2.46875,-4.40625 2,-3.984375 1.71875,-3.359375 V -4.40625 L 0.3125,-4.296875 v 0.3125 c 0.703125,0 0.78125,0.0625 0.78125,0.5625 z m 0,0"
           style="stroke:none" />
      </g>
      <g
         id="use1016"
         transform="matrix(0.9375,0,0,0.9375,631.24123,57.450954)">
        <path
           inkscape:connector-curvature="0"
           id="path1121"
           d="M 1.578125,-7.484375 H 0.21875 v 0.40625 H 1.1875 V 2.09375 H 0.21875 V 2.5 h 1.359375 z m 0,0"
           style="stroke:none" />
      </g>
    </g>
    <g
       transform="matrix(1.25,0,0,1.25,-167.6565,66.390186)"
       style="fill:#000000;fill-opacity:1"
       id="g1034">
      <g
         id="use1032"
         transform="matrix(0.9375,0,0,0.9375,660.97678,57.450954)">
        <path
           inkscape:connector-curvature="0"
           id="path1185"
           d="m 4.53125,-4.984375 c 0,-0.65625 -0.171875,-2.046875 -1.1875,-2.046875 -1.390625,0 -2.921875,2.8125 -2.921875,5.09375 0,0.9375 0.28125,2.046875 1.1875,2.046875 1.40625,0 2.921875,-2.859375 2.921875,-5.09375 z M 1.46875,-3.625 C 1.640625,-4.25 1.84375,-5.046875 2.25,-5.765625 2.515625,-6.25 2.875,-6.8125 3.328125,-6.8125 c 0.484375,0 0.546875,0.640625 0.546875,1.203125 0,0.5 -0.078125,1 -0.3125,1.984375 z m 2,0.328125 C 3.359375,-2.84375 3.15625,-2 2.765625,-1.28125 c -0.34375,0.6875 -0.71875,1.171875 -1.15625,1.171875 -0.328125,0 -0.53125,-0.296875 -0.53125,-1.21875 0,-0.421875 0.0625,-1 0.3125,-1.96875 z m 0,0"
           style="stroke:none" />
      </g>
    </g>
    <g
       transform="matrix(1.25,0,0,1.25,-187.07614,77.104473)"
       style="fill:#000000;fill-opacity:1"
       id="g1046">
      <g
         id="use1036"
         transform="matrix(0.9375,0,0,0.9375,669.25178,57.450954)">
        <path
           inkscape:connector-curvature="0"
           id="path1173"
           d="M 2.546875,2.5 V 2.09375 h -0.96875 v -9.171875 h 0.96875 v -0.40625 h -1.375 V 2.5 Z m 0,0"
           style="stroke:none" />
      </g>
      <g
         id="use1038"
         transform="matrix(0.9375,0,0,0.9375,672.01939,57.450954)">
        <path
           inkscape:connector-curvature="0"
           id="path1181"
           d="M 1.671875,-3.3125 V -4.40625 L 0.28125,-4.296875 v 0.3125 c 0.703125,0 0.78125,0.0625 0.78125,0.5625 V -0.75 c 0,0.4375 -0.109375,0.4375 -0.78125,0.4375 V 0 c 0.390625,-0.015625 0.859375,-0.03125 1.140625,-0.03125 0.390625,0 0.859375,0 1.265625,0.03125 V -0.3125 H 2.46875 c -0.734375,0 -0.75,-0.109375 -0.75,-0.46875 V -2.3125 c 0,-0.984375 0.421875,-1.875 1.171875,-1.875 0.0625,0 0.09375,0 0.109375,0.015625 -0.03125,0 -0.234375,0.125 -0.234375,0.390625 0,0.265625 0.21875,0.421875 0.4375,0.421875 0.171875,0 0.421875,-0.125 0.421875,-0.4375 0,-0.3125 -0.3125,-0.609375 -0.734375,-0.609375 -0.734375,0 -1.09375,0.671875 -1.21875,1.09375 z m 0,0"
           style="stroke:none" />
      </g>
      <g
         id="use1040"
         transform="matrix(0.9375,0,0,0.9375,675.92174,57.450954)">
        <path
           inkscape:connector-curvature="0"
           id="path1193"
           d="m 3.3125,-0.75 c 0.046875,0.390625 0.3125,0.8125 0.78125,0.8125 0.21875,0 0.828125,-0.140625 0.828125,-0.953125 v -0.5625 h -0.25 v 0.5625 c 0,0.578125 -0.25,0.640625 -0.359375,0.640625 -0.328125,0 -0.375,-0.453125 -0.375,-0.5 v -1.984375 c 0,-0.421875 0,-0.8125 -0.359375,-1.1875 C 3.1875,-4.3125 2.6875,-4.46875 2.21875,-4.46875 c -0.828125,0 -1.515625,0.46875 -1.515625,1.125 0,0.296875 0.203125,0.46875 0.46875,0.46875 0.28125,0 0.453125,-0.203125 0.453125,-0.453125 0,-0.125 -0.046875,-0.453125 -0.515625,-0.453125 C 1.390625,-4.140625 1.875,-4.25 2.1875,-4.25 c 0.5,0 1.0625,0.390625 1.0625,1.28125 v 0.359375 c -0.515625,0.03125 -1.203125,0.0625 -1.828125,0.359375 -0.75,0.34375 -1,0.859375 -1,1.296875 0,0.8125 0.96875,1.0625 1.59375,1.0625 0.65625,0 1.109375,-0.40625 1.296875,-0.859375 z M 3.25,-2.390625 v 1 c 0,0.9375 -0.71875,1.28125 -1.171875,1.28125 -0.484375,0 -0.890625,-0.34375 -0.890625,-0.84375 0,-0.546875 0.421875,-1.375 2.0625,-1.4375 z m 0,0"
           style="stroke:none" />
      </g>
      <g
         id="use1042"
         transform="matrix(0.9375,0,0,0.9375,680.90304,57.450954)">
        <path
           inkscape:connector-curvature="0"
           id="path1177"
           d="m 3.78125,-0.546875 v 0.65625 L 5.25,0 v -0.3125 c -0.6875,0 -0.78125,-0.0625 -0.78125,-0.5625 V -6.921875 L 3.046875,-6.8125 V -6.5 c 0.6875,0 0.765625,0.0625 0.765625,0.5625 v 2.15625 c -0.28125,-0.359375 -0.71875,-0.625 -1.25,-0.625 -1.171875,0 -2.21875,0.984375 -2.21875,2.265625 0,1.265625 0.96875,2.25 2.109375,2.25 0.640625,0 1.078125,-0.34375 1.328125,-0.65625 z m 0,-2.671875 v 2.046875 c 0,0.171875 0,0.1875 -0.109375,0.359375 C 3.375,-0.328125 2.9375,-0.109375 2.5,-0.109375 2.046875,-0.109375 1.6875,-0.375 1.453125,-0.75 1.203125,-1.15625 1.171875,-1.71875 1.171875,-2.140625 1.171875,-2.5 1.1875,-3.09375 1.46875,-3.546875 1.6875,-3.859375 2.0625,-4.1875 2.609375,-4.1875 c 0.34375,0 0.765625,0.15625 1.0625,0.59375 0.109375,0.171875 0.109375,0.1875 0.109375,0.375 z m 0,0"
           style="stroke:none" />
      </g>
      <g
         id="use1044"
         transform="matrix(0.9375,0,0,0.9375,686.43826,57.450954)">
        <path
           inkscape:connector-curvature="0"
           id="path1189"
           d="M 1.578125,-7.484375 H 0.21875 v 0.40625 H 1.1875 V 2.09375 H 0.21875 V 2.5 h 1.359375 z m 0,0"
           style="stroke:none" />
      </g>
    </g>
    <g
       transform="matrix(1.25,0,0,1.25,-222.02856,-39.343963)"
       style="fill:#000000;fill-opacity:1"
       id="g1050">
      <g
         id="use1048"
         transform="matrix(0.9375,0,0,0.9375,692.52578,57.450954)">
        <path
           inkscape:connector-curvature="0"
           id="path1257"
           d="M 3.484375,-0.5625 C 3.59375,-0.15625 3.953125,0.109375 4.375,0.109375 4.71875,0.109375 4.953125,-0.125 5.109375,-0.4375 5.28125,-0.796875 5.40625,-1.40625 5.40625,-1.421875 c 0,-0.109375 -0.078125,-0.109375 -0.109375,-0.109375 -0.109375,0 -0.109375,0.046875 -0.140625,0.1875 -0.140625,0.5625 -0.328125,1.234375 -0.75,1.234375 -0.203125,0 -0.3125,-0.125 -0.3125,-0.453125 0,-0.21875 0.125,-0.6875 0.203125,-1.046875 L 4.578125,-2.6875 C 4.609375,-2.828125 4.703125,-3.203125 4.75,-3.359375 4.796875,-3.59375 4.890625,-3.96875 4.890625,-4.03125 c 0,-0.171875 -0.140625,-0.265625 -0.28125,-0.265625 -0.046875,0 -0.3125,0.015625 -0.390625,0.34375 -0.1875,0.734375 -0.625,2.484375 -0.75,3 -0.015625,0.046875 -0.40625,0.84375 -1.140625,0.84375 -0.515625,0 -0.609375,-0.453125 -0.609375,-0.8125 0,-0.5625 0.28125,-1.34375 0.53125,-2.03125 0.125,-0.3125 0.171875,-0.453125 0.171875,-0.640625 0,-0.4375 -0.3125,-0.8125 -0.8125,-0.8125 -0.953125,0 -1.3125,1.453125 -1.3125,1.53125 0,0.109375 0.09375,0.109375 0.109375,0.109375 0.109375,0 0.109375,-0.03125 0.15625,-0.1875 0.25,-0.859375 0.640625,-1.234375 1.015625,-1.234375 0.09375,0 0.25,0.015625 0.25,0.328125 0,0.234375 -0.109375,0.53125 -0.171875,0.671875 -0.375,1 -0.578125,1.609375 -0.578125,2.09375 0,0.953125 0.6875,1.203125 1.21875,1.203125 0.65625,0 1.015625,-0.453125 1.1875,-0.671875 z m 0,0"
           style="stroke:none" />
      </g>
    </g>
    <g
       transform="matrix(1.25,0,0,1.25,-222.02856,-39.343963)"
       style="fill:#000000;fill-opacity:1"
       id="g1062">
      <g
         id="use1052"
         transform="matrix(0.9375,0,0,0.9375,701.54978,57.450954)">
        <path
           inkscape:connector-curvature="0"
           id="path1249"
           d="M 2.546875,2.5 V 2.09375 h -0.96875 v -9.171875 h 0.96875 v -0.40625 h -1.375 V 2.5 Z m 0,0"
           style="stroke:none" />
      </g>
      <g
         id="use1054"
         transform="matrix(0.9375,0,0,0.9375,704.31739,57.450954)">
        <path
           inkscape:connector-curvature="0"
           id="path1253"
           d="M 1.09375,-3.421875 V -0.75 c 0,0.4375 -0.109375,0.4375 -0.78125,0.4375 V 0 c 0.359375,-0.015625 0.859375,-0.03125 1.140625,-0.03125 0.25,0 0.765625,0.015625 1.109375,0.03125 v -0.3125 c -0.671875,0 -0.78125,0 -0.78125,-0.4375 V -2.59375 C 1.78125,-3.625 2.5,-4.1875 3.125,-4.1875 c 0.640625,0 0.75,0.53125 0.75,1.109375 V -0.75 c 0,0.4375 -0.109375,0.4375 -0.78125,0.4375 V 0 c 0.34375,-0.015625 0.859375,-0.03125 1.125,-0.03125 0.25,0 0.78125,0.015625 1.109375,0.03125 v -0.3125 c -0.65625,0 -0.765625,0 -0.765625,-0.4375 v -1.84375 c 0,-1.03125 0.703125,-1.59375 1.34375,-1.59375 0.625,0 0.734375,0.53125 0.734375,1.109375 V -0.75 c 0,0.4375 -0.109375,0.4375 -0.78125,0.4375 V 0 c 0.34375,-0.015625 0.859375,-0.03125 1.125,-0.03125 0.265625,0 0.78125,0.015625 1.125,0.03125 v -0.3125 c -0.515625,0 -0.765625,0 -0.78125,-0.296875 v -1.90625 c 0,-0.859375 0,-1.15625 -0.3125,-1.515625 -0.140625,-0.171875 -0.46875,-0.375 -1.046875,-0.375 -0.828125,0 -1.28125,0.59375 -1.4375,0.984375 C 4.390625,-4.296875 3.65625,-4.40625 3.203125,-4.40625 2.46875,-4.40625 2,-3.984375 1.71875,-3.359375 V -4.40625 L 0.3125,-4.296875 v 0.3125 c 0.703125,0 0.78125,0.0625 0.78125,0.5625 z m 0,0"
           style="stroke:none" />
      </g>
      <g
         id="use1056"
         transform="matrix(0.9375,0,0,0.9375,712.61922,57.450954)">
        <path
           inkscape:connector-curvature="0"
           id="path1265"
           d="m 4.359375,-7.09375 c 0.0625,-0.140625 0.0625,-0.15625 0.0625,-0.1875 0,-0.109375 -0.09375,-0.203125 -0.203125,-0.203125 C 4.078125,-7.484375 4.03125,-7.375 4,-7.28125 L 0.609375,2.109375 C 0.5625,2.25 0.5625,2.265625 0.5625,2.296875 0.5625,2.40625 0.640625,2.5 0.75,2.5 0.890625,2.5 0.9375,2.390625 0.96875,2.296875 Z m 0,0"
           style="stroke:none" />
      </g>
      <g
         id="use1058"
         transform="matrix(0.9375,0,0,0.9375,717.60052,57.450954)">
        <path
           inkscape:connector-curvature="0"
           id="path1245"
           d="m 2.078125,-1.9375 c 0.21875,0.046875 1.03125,0.203125 1.03125,0.921875 0,0.5 -0.34375,0.90625 -1.125,0.90625 -0.84375,0 -1.203125,-0.5625 -1.390625,-1.421875 C 0.5625,-1.65625 0.5625,-1.6875 0.453125,-1.6875 c -0.125,0 -0.125,0.0625 -0.125,0.234375 V -0.125 c 0,0.171875 0,0.234375 0.109375,0.234375 0.046875,0 0.0625,-0.015625 0.25,-0.203125 0.015625,-0.015625 0.015625,-0.03125 0.203125,-0.21875 0.4375,0.40625 0.890625,0.421875 1.09375,0.421875 1.140625,0 1.609375,-0.671875 1.609375,-1.390625 0,-0.515625 -0.296875,-0.828125 -0.421875,-0.9375 C 2.84375,-2.546875 2.453125,-2.625 2.03125,-2.703125 1.46875,-2.8125 0.8125,-2.9375 0.8125,-3.515625 c 0,-0.359375 0.25,-0.765625 1.109375,-0.765625 1.09375,0 1.15625,0.90625 1.171875,1.203125 0,0.09375 0.09375,0.09375 0.109375,0.09375 0.140625,0 0.140625,-0.046875 0.140625,-0.234375 v -1.015625 c 0,-0.15625 0,-0.234375 -0.109375,-0.234375 -0.046875,0 -0.078125,0 -0.203125,0.125 -0.03125,0.03125 -0.125,0.125 -0.171875,0.15625 -0.375,-0.28125 -0.78125,-0.28125 -0.9375,-0.28125 -1.21875,0 -1.59375,0.671875 -1.59375,1.234375 0,0.34375 0.15625,0.625 0.421875,0.84375 0.328125,0.25 0.609375,0.3125 1.328125,0.453125 z m 0,0"
           style="stroke:none" />
      </g>
      <g
         id="use1060"
         transform="matrix(0.9375,0,0,0.9375,721.52978,57.450954)">
        <path
           inkscape:connector-curvature="0"
           id="path1261"
           d="M 1.578125,-7.484375 H 0.21875 v 0.40625 H 1.1875 V 2.09375 H 0.21875 V 2.5 h 1.359375 z m 0,0"
           style="stroke:none" />
      </g>
    </g>
    <g
       transform="matrix(1.25,0,0,1.25,-112.07375,47.640186)"
       style="fill:#000000;fill-opacity:1"
       id="g1022">
      <g
         id="use1020"
         transform="matrix(0.9375,0,0,0.9375,637.32978,57.450954)">
        <path
           inkscape:connector-curvature="0"
           id="path1319"
           d="m 2.578125,-6.8125 c 0,0 0,-0.109375 -0.140625,-0.109375 -0.21875,0 -0.953125,0.078125 -1.21875,0.109375 -0.078125,0 -0.1875,0.015625 -0.1875,0.203125 0,0.109375 0.109375,0.109375 0.25,0.109375 0.484375,0 0.5,0.09375 0.5,0.171875 L 1.75,-6.125 0.484375,-1.140625 C 0.453125,-1.03125 0.4375,-0.96875 0.4375,-0.8125 c 0,0.578125 0.4375,0.921875 0.90625,0.921875 0.328125,0 0.578125,-0.203125 0.75,-0.5625 0.171875,-0.375 0.296875,-0.953125 0.296875,-0.96875 0,-0.109375 -0.09375,-0.109375 -0.125,-0.109375 -0.09375,0 -0.109375,0.046875 -0.125,0.1875 C 1.96875,-0.703125 1.78125,-0.109375 1.375,-0.109375 c -0.296875,0 -0.296875,-0.3125 -0.296875,-0.453125 0,-0.25 0.015625,-0.296875 0.0625,-0.484375 z m 0,0"
           style="stroke:none" />
      </g>
    </g>
    <g
       transform="matrix(1.25,0,0,1.25,-112.07375,47.640186)"
       style="fill:#000000;fill-opacity:1"
       id="g1030">
      <g
         id="use1024"
         transform="matrix(0.9375,0,0,0.9375,643.81878,57.450954)">
        <path
           inkscape:connector-curvature="0"
           id="path1307"
           d="M 2.546875,2.5 V 2.09375 h -0.96875 v -9.171875 h 0.96875 v -0.40625 h -1.375 V 2.5 Z m 0,0"
           style="stroke:none" />
      </g>
      <g
         id="use1026"
         transform="matrix(0.9375,0,0,0.9375,646.58639,57.450954)">
        <path
           inkscape:connector-curvature="0"
           id="path1311"
           d="M 1.09375,-3.421875 V -0.75 c 0,0.4375 -0.109375,0.4375 -0.78125,0.4375 V 0 c 0.359375,-0.015625 0.859375,-0.03125 1.140625,-0.03125 0.25,0 0.765625,0.015625 1.109375,0.03125 v -0.3125 c -0.671875,0 -0.78125,0 -0.78125,-0.4375 V -2.59375 C 1.78125,-3.625 2.5,-4.1875 3.125,-4.1875 c 0.640625,0 0.75,0.53125 0.75,1.109375 V -0.75 c 0,0.4375 -0.109375,0.4375 -0.78125,0.4375 V 0 c 0.34375,-0.015625 0.859375,-0.03125 1.125,-0.03125 0.25,0 0.78125,0.015625 1.109375,0.03125 v -0.3125 c -0.65625,0 -0.765625,0 -0.765625,-0.4375 v -1.84375 c 0,-1.03125 0.703125,-1.59375 1.34375,-1.59375 0.625,0 0.734375,0.53125 0.734375,1.109375 V -0.75 c 0,0.4375 -0.109375,0.4375 -0.78125,0.4375 V 0 c 0.34375,-0.015625 0.859375,-0.03125 1.125,-0.03125 0.265625,0 0.78125,0.015625 1.125,0.03125 v -0.3125 c -0.515625,0 -0.765625,0 -0.78125,-0.296875 v -1.90625 c 0,-0.859375 0,-1.15625 -0.3125,-1.515625 -0.140625,-0.171875 -0.46875,-0.375 -1.046875,-0.375 -0.828125,0 -1.28125,0.59375 -1.4375,0.984375 C 4.390625,-4.296875 3.65625,-4.40625 3.203125,-4.40625 2.46875,-4.40625 2,-3.984375 1.71875,-3.359375 V -4.40625 L 0.3125,-4.296875 v 0.3125 c 0.703125,0 0.78125,0.0625 0.78125,0.5625 z m 0,0"
           style="stroke:none" />
      </g>
      <g
         id="use1028"
         transform="matrix(0.9375,0,0,0.9375,654.88823,57.450954)">
        <path
           inkscape:connector-curvature="0"
           id="path1315"
           d="M 1.578125,-7.484375 H 0.21875 v 0.40625 H 1.1875 V 2.09375 H 0.21875 V 2.5 h 1.359375 z m 0,0"
           style="stroke:none" />
      </g>
    </g>
  </g>
</svg>
